<?xml version="1.0" encoding="UTF-8"?>
<!-- Original artwork for agent-terminal (a git worktree: a branch forking from a trunk). 16x16 grid, single colour, one plain path.
     The identity transform is deliberate: see THIRD_PARTY.md ("Rendering note"). -->
<svg xmlns="http://www.w3.org/2000/svg" width="16" height="16" viewBox="0 0 16 16">
  <path fill="#2e3436" d="M4 1a2 2 0 0 1 .8 3.83v6.34a2 2 0 1 1-1.6 0V4.83A2 2 0 0 1 4 1zM12 3.2a2 2 0 1 1 0 4 2 2 0 0 1 0-4zM11.2 7.2h1.6v1.2c0 1.7-1.3 3-3 3H5V9.8h4.8c.8 0 1.4-.6 1.4-1.4z" transform="translate(0 0)"/>
</svg>
