<?xml version="1.0" encoding="UTF-8"?>
<!-- Symbolic form of assets/ca.nuvek.AgentTerminal.svg: the speech-bubble terminal
     with its prompt chevron, single colour. Original artwork for agent-terminal. -->
<svg xmlns="http://www.w3.org/2000/svg" width="16" height="16" viewBox="0 0 16 16">
  <path fill="#2e3436" fill-rule="evenodd" d="M3 1h10a3 3 0 0 1 3 3v5a3 3 0 0 1-3 3H8.2L5 15.2V12H3a3 3 0 0 1-3-3V4a3 3 0 0 1 3-3zM3 2.6A1.4 1.4 0 0 0 1.6 4v5A1.4 1.4 0 0 0 3 10.4h3.4v1.7l1.6-1.7h5A1.4 1.4 0 0 0 14.4 9V4A1.4 1.4 0 0 0 13 2.6zM4.3 4.4L7.3 6.5 4.3 8.6 3.6 7.6 5.2 6.5 3.6 5.4zM8 7.9h3.2V9H8z"/>
</svg>
